<svg xmlns="http://www.w3.org/2000/svg" width="1200" height="520" viewBox="0 0 1200 520">
  <defs>
    <style>
      .title { font: 700 30px Arial, sans-serif; fill: #12314f; }
      .step { font: 700 18px Arial, sans-serif; fill: #ffffff; }
      .label { font: 600 16px Arial, sans-serif; fill: #1f3d5a; }
      .text { font: 500 14px Arial, sans-serif; fill: #2f4f6e; }
      .bubble { fill: #2f6ea3; }
      .card { fill: #f7fbff; stroke: #2f6ea3; stroke-width: 2; rx: 14; ry: 14; }
      .arrow { stroke: #2f6ea3; stroke-width: 2.5; marker-end: url(#m); fill: none; }
    </style>
    <marker id="m" markerWidth="10" markerHeight="10" refX="9" refY="3" orient="auto">
      <path d="M0,0 L10,3 L0,6 z" fill="#2f6ea3" />
    </marker>
  </defs>

  <text x="40" y="55" class="title">Classroom Demonstration Flow</text>

  <circle cx="120" cy="170" r="32" class="bubble" />
  <text x="109" y="177" class="step">1</text>
  <rect x="170" y="120" width="260" height="100" class="card" />
  <text x="205" y="157" class="label">Prepare Environment</text>
  <text x="196" y="184" class="text">Run health_check and model check</text>

  <circle cx="120" cy="300" r="32" class="bubble" />
  <text x="109" y="307" class="step">2</text>
  <rect x="170" y="250" width="260" height="100" class="card" />
  <text x="222" y="287" class="label">Load Knowledge</text>
  <text x="198" y="314" class="text">Index martial arts materials</text>

  <circle cx="120" cy="430" r="32" class="bubble" />
  <text x="109" y="437" class="step">3</text>
  <rect x="170" y="380" width="260" height="100" class="card" />
  <text x="220" y="417" class="label">Live Interaction</text>
  <text x="194" y="444" class="text">Ask and explain with references</text>

  <rect x="560" y="120" width="260" height="100" class="card" />
  <text x="638" y="157" class="label">CLI Demo</text>
  <text x="589" y="184" class="text">scripts/run_cli.sh</text>

  <rect x="560" y="250" width="260" height="100" class="card" />
  <text x="627" y="287" class="label">Web Demo</text>
  <text x="590" y="314" class="text">scripts/run_web.sh</text>

  <rect x="560" y="380" width="260" height="100" class="card" />
  <text x="619" y="417" class="label">Share Demo</text>
  <text x="582" y="444" class="text">LAN or temporary public tunnel</text>

  <rect x="910" y="220" width="240" height="160" class="card" />
  <text x="972" y="260" class="label">Expected Output</text>
  <text x="938" y="292" class="text">- Curriculum-aligned answers</text>
  <text x="938" y="318" class="text">- Transparent references</text>
  <text x="938" y="344" class="text">- Clear teaching guidance</text>

  <line x1="430" y1="170" x2="560" y2="170" class="arrow" />
  <line x1="430" y1="300" x2="560" y2="300" class="arrow" />
  <line x1="430" y1="430" x2="560" y2="430" class="arrow" />
  <line x1="820" y1="300" x2="910" y2="300" class="arrow" />
</svg>
