<svg xmlns="http://www.w3.org/2000/svg" width="1200" height="520" viewBox="0 0 1200 520">
  <defs>
    <style>
      .title { font: 700 30px Arial, sans-serif; fill: #12314f; }
      .step { font: 700 18px Arial, sans-serif; fill: #ffffff; }
      .label { font: 700 18px Arial, sans-serif; fill: #1f3d5a; }
      .text { font: 600 14px Arial, sans-serif; fill: #2f4f6e; }
      .bubble { fill: #2f6ea3; }
      .card { fill: #f7fbff; stroke: #2f6ea3; stroke-width: 2; rx: 14; ry: 14; }
      .arrow { stroke: #2f6ea3; stroke-width: 2.5; marker-end: url(#m); fill: none; }
    </style>
    <marker id="m" markerWidth="10" markerHeight="10" refX="9" refY="3" orient="auto">
      <path d="M0,0 L10,3 L0,6 z" fill="#2f6ea3" />
    </marker>
  </defs>

  <text x="40" y="55" class="title">课堂演示流程</text>

  <circle cx="120" cy="170" r="32" class="bubble" />
  <text x="109" y="177" class="step">1</text>
  <rect x="170" y="120" width="260" height="100" class="card" />
  <text x="210" y="157" class="label">环境准备</text>
  <text x="190" y="184" class="text">运行健康检查和模型验证</text>

  <circle cx="120" cy="300" r="32" class="bubble" />
  <text x="109" y="307" class="step">2</text>
  <rect x="170" y="250" width="260" height="100" class="card" />
  <text x="210" y="287" class="label">加载知识库</text>
  <text x="180" y="314" class="text">索引武术教学资料</text>

  <circle cx="120" cy="430" r="32" class="bubble" />
  <text x="109" y="437" class="step">3</text>
  <rect x="170" y="380" width="260" height="100" class="card" />
  <text x="200" y="417" class="label">实时互动</text>
  <text x="170" y="444" class="text">提问与带参考答案讲解</text>

  <rect x="560" y="120" width="260" height="100" class="card" />
  <text x="628" y="157" class="label">命令行演示</text>
  <text x="580" y="184" class="text">scripts/run_cli.sh</text>

  <rect x="560" y="250" width="260" height="100" class="card" />
  <text x="638" y="287" class="label">Web演示</text>
  <text x="590" y="314" class="text">scripts/run_web.sh</text>

  <rect x="560" y="380" width="260" height="100" class="card" />
  <text x="620" y="417" class="label">公开分享</text>
  <text x="570" y="444" class="text">局域网或临时公网隧道</text>

  <rect x="910" y="220" width="240" height="160" class="card" />
  <text x="968" y="260" class="label">预期输出</text>
  <text x="930" y="292" class="text">- 符合教材的答案</text>
  <text x="930" y="318" class="text">- 透明的参考来源</text>
  <text x="930" y="344" class="text">- 清晰的教学指导</text>

  <line x1="430" y1="170" x2="560" y2="170" class="arrow" />
  <line x1="430" y1="300" x2="560" y2="300" class="arrow" />
  <line x1="430" y1="430" x2="560" y2="430" class="arrow" />
  <line x1="820" y1="300" x2="910" y2="300" class="arrow" />
</svg>