<svg xmlns="http://www.w3.org/2000/svg" width="1200" height="720" viewBox="0 0 1200 720">
  <defs>
    <style>
      .t { font: 700 32px Arial, sans-serif; fill: #0f2a44; }
      .h { font: 700 20px Arial, sans-serif; fill: #173b5e; }
      .m { font: 600 16px Arial, sans-serif; fill: #224b71; }
      .b { fill: #f3f8fe; stroke: #24527a; stroke-width: 2; rx: 14; ry: 14; }
      .s { fill: #ffffff; stroke: #4f7fa7; stroke-width: 1.8; rx: 10; ry: 10; }
      .a { stroke: #24527a; stroke-width: 2.5; marker-end: url(#m1); fill: none; }
    </style>
    <marker id="m1" markerWidth="10" markerHeight="10" refX="9" refY="3" orient="auto">
      <path d="M0,0 L10,3 L0,6 z" fill="#24527a" />
    </marker>
  </defs>

  <text x="36" y="54" class="t">武术智能体系统总览</text>

  <rect x="40" y="120" width="230" height="100" class="b" />
  <text x="95" y="160" class="h">教师 / 学生</text>
  <text x="78" y="188" class="m">输入问题、动作描述、教学任务</text>

  <rect x="320" y="90" width="560" height="560" class="b" />
  <text x="525" y="128" class="h">武术智能体核心</text>

  <rect x="360" y="170" width="210" height="95" class="s" />
  <text x="420" y="208" class="h">意图路由</text>
  <text x="385" y="236" class="m">理论问答 / 教学辅导 / 演示</text>

  <rect x="620" y="170" width="220" height="95" class="s" />
  <text x="700" y="208" class="h">模型推理</text>
  <text x="648" y="236" class="m">生成解释、步骤、反馈建议</text>

  <rect x="360" y="305" width="220" height="110" class="s" />
  <text x="425" y="345" class="h">武术知识库</text>
  <text x="390" y="373" class="m">txt / xlsx 课程与规范资料</text>

  <rect x="620" y="305" width="220" height="110" class="s" />
  <text x="675" y="345" class="h">检索增强 RAG</text>
  <text x="650" y="373" class="m">召回片段并融合上下文</text>

  <rect x="360" y="455" width="480" height="150" class="s" />
  <text x="520" y="495" class="h">教学评估与输出组织</text>
  <text x="390" y="525" class="m">输出结构：概念解释、动作要点、训练建议、引用依据</text>
  <text x="390" y="552" class="m">支持 CLI 与 Web 双端展示</text>

  <rect x="930" y="130" width="230" height="100" class="b" />
  <text x="1000" y="170" class="h">Web / CLI</text>
  <text x="950" y="198" class="m">提问、查看引用、互动反馈</text>

  <rect x="930" y="330" width="230" height="100" class="b" />
  <text x="1005" y="370" class="h">教学输出</text>
  <text x="958" y="398" class="m">规范化回答与教学指导</text>

  <line x1="270" y1="170" x2="320" y2="170" class="a" />
  <line x1="570" y1="220" x2="620" y2="220" class="a" />
  <line x1="470" y1="265" x2="470" y2="305" class="a" />
  <line x1="730" y1="265" x2="730" y2="305" class="a" />
  <line x1="730" y1="415" x2="730" y2="455" class="a" />
  <line x1="840" y1="220" x2="930" y2="180" class="a" />
  <line x1="840" y1="380" x2="930" y2="380" class="a" />
</svg>
