<svg xmlns="http://www.w3.org/2000/svg" width="1200" height="720" viewBox="0 0 1200 720">
  <defs>
    <style>
      .t { font: 700 32px "Noto Sans CJK SC", "WenQuanYi Zen Hei", "Droid Sans Fallback", sans-serif; fill: #0f2a44; }
      .h { font: 700 20px "Noto Sans CJK SC", "WenQuanYi Zen Hei", "Droid Sans Fallback", sans-serif; fill: #173b5e; }
      .m { font: 600 16px "Noto Sans CJK SC", "WenQuanYi Zen Hei", "Droid Sans Fallback", sans-serif; fill: #224b71; }
      .b { fill: #f3f8fe; stroke: #24527a; stroke-width: 2; rx: 14; ry: 14; }
      .s { fill: #ffffff; stroke: #4f7fa7; stroke-width: 1.8; rx: 10; ry: 10; }
      .a { stroke: #24527a; stroke-width: 2.5; marker-end: url(#m1); fill: none; }
    </style>
    <marker id="m1" markerWidth="10" markerHeight="10" refX="9" refY="3" orient="auto">
      <path d="M0,0 L10,3 L0,6 z" fill="#24527a" />
    </marker>
  </defs>

  <text x="36" y="54" class="t">Martial Arts Teaching Agent System Overview</text>

  <rect x="40" y="120" width="230" height="100" class="b" />
  <text x="82" y="160" class="h">Teacher / Student</text>
  <text x="82" y="188" class="m">Questions, tasks, descriptions</text>

  <rect x="320" y="90" width="560" height="560" class="b" />
  <text x="500" y="128" class="h">Martial Arts Agent Core</text>

  <rect x="360" y="170" width="210" height="95" class="s" />
  <text x="410" y="208" class="h">Intent Router</text>
  <text x="382" y="236" class="m">Theory / coaching / demo path</text>

  <rect x="620" y="170" width="220" height="95" class="s" />
  <text x="684" y="208" class="h">LLM Engine</text>
  <text x="646" y="236" class="m">Generate guided responses</text>

  <rect x="360" y="305" width="220" height="110" class="s" />
  <text x="398" y="345" class="h">Martial Arts KB</text>
  <text x="388" y="373" class="m">txt/xlsx teaching resources</text>

  <rect x="620" y="305" width="220" height="110" class="s" />
  <text x="684" y="345" class="h">RAG Layer</text>
  <text x="644" y="373" class="m">Retrieve and inject context</text>

  <rect x="360" y="455" width="480" height="150" class="s" />
  <text x="502" y="495" class="h">Response Structuring</text>
  <text x="388" y="525" class="m">Output sections: explanation, key points, training suggestions</text>
  <text x="388" y="552" class="m">Supports both CLI and Web presentation</text>

  <rect x="930" y="130" width="230" height="100" class="b" />
  <text x="996" y="170" class="h">Web / CLI</text>
  <text x="958" y="198" class="m">Interactive teaching interface</text>

  <rect x="930" y="330" width="230" height="100" class="b" />
  <text x="985" y="370" class="h">Output</text>
  <text x="952" y="398" class="m">Evidence-based guidance</text>

  <line x1="270" y1="170" x2="320" y2="170" class="a" />
  <line x1="570" y1="220" x2="620" y2="220" class="a" />
  <line x1="470" y1="265" x2="470" y2="305" class="a" />
  <line x1="730" y1="265" x2="730" y2="305" class="a" />
  <line x1="730" y1="415" x2="730" y2="455" class="a" />
  <line x1="840" y1="220" x2="930" y2="180" class="a" />
  <line x1="840" y1="380" x2="930" y2="380" class="a" />
</svg>
